<svg width="24" height="24" viewBox="0 0 24 24" fill="none" xmlns="http://www.w3.org/2000/svg">
  <!-- Folder icon -->
  <path d="M3 5C3 3.89543 3.89543 3 5 3H9L11 5H19C20.1046 5 21 5.89543 21 7V11" stroke="currentColor" stroke-width="2" stroke-linecap="round" stroke-linejoin="round"/>
  <path d="M3 7V17C3 18.1046 3.89543 19 5 19H11" stroke="currentColor" stroke-width="2" stroke-linecap="round" stroke-linejoin="round"/>

  <!-- Chat bubble icon -->
  <path d="M21 15C21 16.6569 19.6569 18 18 18H16L13 21V18H12C10.3431 18 9 16.6569 9 15V12C9 10.3431 10.3431 9 12 9H18C19.6569 9 21 10.3431 21 12V15Z" stroke="currentColor" stroke-width="2" stroke-linecap="round" stroke-linejoin="round"/>
</svg>
